<mxfile host="Electron" agent="Mozilla/5.0 (Windows NT 10.0; Win64; x64) AppleWebKit/537.36 (KHTML, like Gecko) draw.io/28.1.2 Chrome/138.0.7204.243 Electron/37.4.0 Safari/537.36" version="28.1.2">
  <diagram id="delete-operation-diagram" name="Delete Operation">
    <mxGraphModel dx="2066" dy="1202" grid="1" gridSize="10" guides="1" tooltips="1" connect="1" arrows="1" fold="1" page="0" pageScale="1" pageWidth="850" pageHeight="1100" math="0" shadow="0">
      <root>
        <mxCell id="0" />
        <mxCell id="1" parent="0" />
        <mxCell id="2" style="edgeStyle=orthogonalEdgeStyle;rounded=0;orthogonalLoop=1;jettySize=auto;html=1;entryX=0;entryY=0.5;entryDx=0;entryDy=0;" parent="1" source="7" target="15" edge="1">
          <mxGeometry relative="1" as="geometry">
            <Array as="points">
              <mxPoint x="750" y="502" />
              <mxPoint x="750" y="469" />
            </Array>
          </mxGeometry>
        </mxCell>
        <mxCell id="7" value="File Manager" style="rounded=0;whiteSpace=wrap;html=1;fontFamily=Helvetica;fillColor=#FFFFFF;" parent="1" vertex="1">
          <mxGeometry x="540" y="471.5" width="120" height="60" as="geometry" />
        </mxCell>
        <mxCell id="8" style="edgeStyle=orthogonalEdgeStyle;rounded=0;orthogonalLoop=1;jettySize=auto;html=1;" parent="1" source="7" target="15" edge="1">
          <mxGeometry x="-0.4783" relative="1" as="geometry">
            <mxPoint as="offset" />
            <Array as="points">
              <mxPoint x="750" y="502" />
              <mxPoint x="750" y="469" />
            </Array>
          </mxGeometry>
        </mxCell>
        <mxCell id="9" style="edgeStyle=orthogonalEdgeStyle;rounded=0;orthogonalLoop=1;jettySize=auto;html=1;entryX=1;entryY=0.5;entryDx=0;entryDy=0;endArrow=none;startFill=1;startArrow=classic;" parent="1" source="15" target="7" edge="1">
          <mxGeometry relative="1" as="geometry">
            <Array as="points">
              <mxPoint x="750" y="469" />
              <mxPoint x="750" y="502" />
            </Array>
          </mxGeometry>
        </mxCell>
        <mxCell id="10" style="edgeStyle=orthogonalEdgeStyle;rounded=0;orthogonalLoop=1;jettySize=auto;html=1;exitX=1;exitY=0.25;exitDx=0;exitDy=0;" parent="1" edge="1">
          <mxGeometry relative="1" as="geometry">
            <mxPoint x="330" y="456.21" as="targetPoint" />
            <mxPoint x="220" y="456.21" as="sourcePoint" />
          </mxGeometry>
        </mxCell>
        <mxCell id="11" value="Delete API" style="edgeLabel;html=1;align=center;verticalAlign=middle;resizable=0;points=[];" parent="10" vertex="1" connectable="0">
          <mxGeometry x="0.2854" relative="1" as="geometry">
            <mxPoint x="-20" as="offset" />
          </mxGeometry>
        </mxCell>
        <mxCell id="12" value="Rover&lt;br&gt;Domain" style="rounded=0;whiteSpace=wrap;html=1;fontFamily=Helvetica;fillColor=#FFFFFF;strokeColor=default;gradientColor=none;" parent="1" vertex="1">
          <mxGeometry x="100" y="426.5" width="120" height="60" as="geometry" />
        </mxCell>
        <mxCell id="13" style="edgeStyle=orthogonalEdgeStyle;rounded=0;orthogonalLoop=1;jettySize=auto;html=1;startArrow=classic;startFill=1;endArrow=none;endFill=1;" parent="1" edge="1">
          <mxGeometry x="0.0039" relative="1" as="geometry">
            <mxPoint x="370" y="491.5" as="targetPoint" />
            <mxPoint x="530" y="492" as="sourcePoint" />
            <mxPoint as="offset" />
          </mxGeometry>
        </mxCell>
        <mxCell id="-qX0YxoAgQLR5bKNCJXU-24" value="receives &lt;b&gt;fileID&lt;/b&gt;" style="edgeLabel;html=1;align=center;verticalAlign=middle;resizable=0;points=[];" parent="13" vertex="1" connectable="0">
          <mxGeometry x="0.0657" y="-4" relative="1" as="geometry">
            <mxPoint as="offset" />
          </mxGeometry>
        </mxCell>
        <mxCell id="14" value="&lt;i&gt;&amp;lt;xxx&amp;gt;&lt;/i&gt;&lt;br&gt;Domain" style="rounded=0;whiteSpace=wrap;html=1;fontFamily=Helvetica;fillColor=#FFFFFF;" parent="1" vertex="1">
          <mxGeometry x="100" y="529" width="120" height="60" as="geometry" />
        </mxCell>
        <mxCell id="15" value="&amp;lt;&amp;lt;Backend&amp;gt;&amp;gt;&lt;div&gt;S3&lt;/div&gt;" style="rounded=0;whiteSpace=wrap;html=1;fillColor=#FFFFFF;" parent="1" vertex="1">
          <mxGeometry x="880" y="450" width="80" height="40" as="geometry" />
        </mxCell>
        <mxCell id="23" value="&amp;lt;&amp;lt;Backend&amp;gt;&amp;gt;&lt;div&gt;XYZ&lt;/div&gt;" style="rounded=0;whiteSpace=wrap;html=1;fillColor=#FFFFFF;" parent="1" vertex="1">
          <mxGeometry x="880" y="510" width="80" height="40" as="geometry" />
        </mxCell>
        <mxCell id="8b" value="delete&lt;br&gt;&lt;b&gt;files + metadata&lt;/b&gt;" style="edgeStyle=orthogonalEdgeStyle;rounded=0;orthogonalLoop=1;jettySize=auto;html=1;" parent="1" source="7" target="23" edge="1">
          <mxGeometry x="-0.4783" relative="1" as="geometry">
            <mxPoint as="offset" />
            <Array as="points">
              <mxPoint x="750" y="502" />
              <mxPoint x="750" y="534" />
            </Array>
          </mxGeometry>
        </mxCell>
        <mxCell id="15c" value="&lt;i&gt;call&lt;/i&gt;" style="edgeStyle=orthogonalEdgeStyle;rounded=0;orthogonalLoop=1;jettySize=auto;html=1;" parent="1" edge="1">
          <mxGeometry relative="1" as="geometry">
            <mxPoint x="330" y="558.5" as="targetPoint" />
            <mxPoint x="220" y="558" as="sourcePoint" />
          </mxGeometry>
        </mxCell>
        <mxCell id="16" value="" style="aspect=fixed;sketch=0;html=1;dashed=0;whitespace=wrap;verticalLabelPosition=bottom;verticalAlign=top;fillColor=#2875E2;strokeColor=#ffffff;points=[[0.005,0.63,0],[0.1,0.2,0],[0.9,0.2,0],[0.5,0,0],[0.995,0.63,0],[0.72,0.99,0],[0.5,1,0],[0.28,0.99,0]];shape=mxgraph.kubernetes.icon2;kubernetesLabel=1;prIcon=crd" parent="1" vertex="1">
          <mxGeometry x="195" y="730" width="50" height="48" as="geometry" />
        </mxCell>
        <mxCell id="18" value="" style="shape=curlyBracket;whiteSpace=wrap;html=1;rounded=1;flipH=1;labelPosition=right;verticalLabelPosition=middle;align=left;verticalAlign=middle;rotation=90;" parent="1" vertex="1">
          <mxGeometry x="210" y="531.5" width="20" height="230" as="geometry" />
        </mxCell>
        <mxCell id="17" value="read&amp;nbsp;&lt;b&gt;fileID&lt;/b&gt;" style="edgeStyle=orthogonalEdgeStyle;rounded=0;orthogonalLoop=1;jettySize=auto;html=1;" parent="1" source="18" target="16" edge="1">
          <mxGeometry relative="1" as="geometry" />
        </mxCell>
        <mxCell id="19" value="2" style="ellipse;whiteSpace=wrap;html=1;aspect=fixed;fillColor=#fff2cc;strokeColor=#d6b656;" parent="1" vertex="1">
          <mxGeometry x="260" y="410" width="30" height="30" as="geometry" />
        </mxCell>
        <mxCell id="21" value="3" style="ellipse;whiteSpace=wrap;html=1;aspect=fixed;fillColor=#fff2cc;strokeColor=#d6b656;" parent="1" vertex="1">
          <mxGeometry x="425" y="441.5" width="30" height="30" as="geometry" />
        </mxCell>
        <mxCell id="22" value="5" style="ellipse;whiteSpace=wrap;html=1;aspect=fixed;fillColor=#fff2cc;strokeColor=#d6b656;" parent="1" vertex="1">
          <mxGeometry x="425" y="530" width="30" height="30" as="geometry" />
        </mxCell>
        <mxCell id="20" value="1" style="ellipse;whiteSpace=wrap;html=1;aspect=fixed;fillColor=#fff2cc;strokeColor=#d6b656;" parent="1" vertex="1">
          <mxGeometry x="230" y="650" width="30" height="30" as="geometry" />
        </mxCell>
        <mxCell id="5" value="" style="shape=curlyBracket;whiteSpace=wrap;html=1;rounded=1;flipH=1;labelPosition=right;verticalLabelPosition=middle;align=left;verticalAlign=middle;" parent="1" vertex="1">
          <mxGeometry x="340" y="390" width="20" height="230" as="geometry" />
        </mxCell>
        <mxCell id="6" value="return &lt;b&gt;status&lt;/b&gt;" style="edgeStyle=orthogonalEdgeStyle;rounded=0;orthogonalLoop=1;jettySize=auto;html=1;dashed=1;" parent="1" edge="1">
          <mxGeometry x="0.0071" relative="1" as="geometry">
            <mxPoint x="370" y="520" as="targetPoint" />
            <mxPoint x="530" y="520" as="sourcePoint" />
            <mxPoint as="offset" />
          </mxGeometry>
        </mxCell>
        <mxCell id="3" value="" style="group;fillColor=none;" parent="1" vertex="1" connectable="0">
          <mxGeometry x="620" y="426.5" width="180" height="164" as="geometry" />
        </mxCell>
        <mxCell id="4" value="4" style="ellipse;whiteSpace=wrap;html=1;aspect=fixed;fillColor=#fff2cc;strokeColor=#d6b656;" parent="3" vertex="1">
          <mxGeometry x="50" y="16.5" width="30" height="30" as="geometry" />
        </mxCell>
      </root>
    </mxGraphModel>
  </diagram>
</mxfile>
